<svg xmlns="http://www.w3.org/2000/svg" viewBox="0 0 100 100"><defs><linearGradient id="g" x1="0" y1="0" x2="1" y2="1"><stop offset="0" stop-color="#5fe0c2"/><stop offset="1" stop-color="#159a83"/></linearGradient><radialGradient id="h" cx=".3" cy=".18" r=".8"><stop offset="0" stop-color="#fff" stop-opacity=".3"/><stop offset=".6" stop-color="#fff" stop-opacity="0"/></radialGradient></defs><rect width="100" height="100" rx="24" fill="url(#g)"/><rect width="100" height="100" rx="24" fill="url(#h)"/><g transform="translate(50 51) scale(1.45) translate(-32 -31)"><g class="ear"><ellipse cx="16.5" cy="16.5" rx="4.6" ry="4" fill="#7c4b2a"/><ellipse cx="47.5" cy="16.5" rx="4.6" ry="4" fill="#7c4b2a"/><ellipse cx="16.8" cy="17" rx="2.2" ry="1.8" fill="#c98b62"/><ellipse cx="47.2" cy="17" rx="2.2" ry="1.8" fill="#c98b62"/></g><path d="M14 22q0-8 9-8h18q9 0 9 8v21q0 13-18 13T14 43z" fill="#b5784a"/><path d="M17 37q0-5 6-5h18q6 0 6 5v6q0 11-15 11T17 43z" fill="#8a5533"/><path d="M20 28q2.6-2.2 5.2 0M38.8 28q2.6-2.2 5.2 0" fill="none" stroke="#2b1d14" stroke-width="2.1" stroke-linecap="round"/><ellipse cx="27" cy="40" rx="1.5" ry="2.3" fill="#2b1d14"/><ellipse cx="37" cy="40" rx="1.5" ry="2.3" fill="#2b1d14"/><path d="M29 47.5q3 1.8 6 0" fill="none" stroke="#2b1d14" stroke-width="1.7" stroke-linecap="round"/><ellipse cx="17.5" cy="33" rx="3" ry="2" fill="#ff9d8a" opacity=".55"/><ellipse cx="46.5" cy="33" rx="3" ry="2" fill="#ff9d8a" opacity=".55"/><g class="fruit"><circle cx="32" cy="9.5" r="6" fill="#ff9416"/><circle cx="30" cy="8" r="1.6" fill="#ffc06b" opacity=".8"/><path d="M32 4q2.5-3 6-1.6" fill="none" stroke="#2f9e57" stroke-width="2" stroke-linecap="round"/></g></g></svg>